<?xml version="1.0" encoding="UTF-8"?>
<svg version="1.1" xmlns="http://www.w3.org/2000/svg" width="512" height="512">
<path d="M0 0 C0.74788058 -0.00235223 1.49576116 -0.00470446 2.26630479 -0.00712797 C4.78642439 -0.01381465 7.30649238 -0.01335985 9.8266201 -0.01294994 C11.64610796 -0.01624877 13.46559508 -0.01997438 15.28508127 -0.02409142 C20.29623446 -0.03411734 25.30737567 -0.03782917 30.31853747 -0.04048073 C35.7188504 -0.04438201 41.11915382 -0.05396045 46.51946068 -0.0626936 C59.56652592 -0.08246264 72.61359195 -0.09252462 85.66066843 -0.10142139 C91.80292439 -0.10580343 97.94517949 -0.11117044 104.08743477 -0.11641026 C124.50235439 -0.13342271 144.91727347 -0.14791739 165.3321991 -0.155159 C170.63082569 -0.15706893 175.92945227 -0.15898925 181.22807884 -0.16094494 C182.54504546 -0.16142868 183.86201208 -0.16191242 185.21888678 -0.16241082 C206.55790989 -0.17071299 227.89686797 -0.19605301 249.23586841 -0.22852562 C271.13794481 -0.26158371 293.03999272 -0.27960662 314.94209421 -0.28280324 C327.24184033 -0.28496945 339.54150475 -0.29373449 351.84122658 -0.31926441 C362.31516184 -0.34095427 372.78899556 -0.34903023 383.26295073 -0.33929763 C388.60694996 -0.33474804 393.95073958 -0.33667763 399.29471016 -0.35605907 C404.18894542 -0.37365614 409.08281762 -0.37272098 413.97705655 -0.35716178 C415.74561366 -0.35478048 417.51419569 -0.35913633 419.28271468 -0.37099043 C431.6220371 -0.44856184 441.57146183 0.42962063 450.882864 9.29047108 C459.89723018 18.78774973 461.08322233 28.86289869 461.01381493 41.64569569 C461.01727751 42.99188808 461.02204609 44.33807763 461.02799666 45.68426132 C461.04045395 49.359353 461.03436054 53.03420924 461.025038 56.70930147 C461.01822609 60.68210334 461.02873932 64.65486585 461.03697777 68.6276598 C461.05029451 76.400836 461.04744656 84.17392513 461.03873985 91.94710469 C461.03195559 98.26639121 461.03104979 104.58565339 461.03431129 110.90494251 C461.03477099 111.80546815 461.03523069 112.70599378 461.03570432 113.63380808 C461.03666353 115.46339743 461.03763617 117.29298678 461.0386221 119.12257612 C461.04716996 136.26533792 461.03735134 153.40805155 461.021221 170.55080545 C461.00781837 185.24953322 461.01014663 199.9481899 461.02397728 214.64691639 C461.04004376 231.72972152 461.04634604 248.81248446 461.03714049 265.8952961 C461.03618487 267.71803061 461.03524176 269.54076512 461.03431129 271.36349964 C461.03384847 272.26024259 461.03338564 273.15698554 461.03290879 274.08090252 C461.03032211 280.39017944 461.03468296 286.69942952 461.04174995 293.00870228 C461.05017702 300.70106601 461.04785948 308.39333795 461.03190772 316.08569121 C461.02404122 320.00796703 461.02090562 323.93008997 461.03085518 327.85236454 C461.03983637 331.44735043 461.03481341 335.04204263 461.01892252 338.63700211 C461.01401782 340.54386632 461.02374054 342.45075113 461.03409421 344.35759354 C460.95925079 355.35301375 458.88771627 364.62403481 451.632864 373.13422108 C444.18084125 379.94664905 436.62174584 383.26321578 426.52683067 383.25447559 C425.29990501 383.25585026 424.07297935 383.25722492 422.80887413 383.25864124 C421.45747923 383.2551026 420.10608458 383.2514678 418.75469017 383.24774647 C417.32539942 383.24746426 415.89610852 383.24762298 414.46681786 383.24818897 C410.5932578 383.24847564 406.71972876 383.24259995 402.84617591 383.23561502 C398.79560679 383.2293598 394.74503694 383.22877596 390.69446373 383.22758961 C383.02706647 383.22448269 375.35968349 383.21627791 367.69229251 383.20624012 C358.96199397 383.19505914 350.23169474 383.18956352 341.50139081 383.18454468 C323.54520712 383.17409477 305.58903671 383.15650769 287.632864 383.13422108 C287.90848167 383.68101521 288.18409935 384.22780933 288.46806908 384.79117298 C291.32760401 390.46610603 294.18157283 396.14381246 297.03227806 401.82318592 C298.09789924 403.94435071 299.16495314 406.06479634 300.23344994 408.18451405 C301.76616796 411.22577921 303.29376928 414.26956613 304.820364 417.31390858 C305.30158714 418.2660323 305.78281029 419.21815601 306.27861595 420.19913197 C306.71907249 421.07989399 307.15952904 421.96065601 307.61333275 422.8681078 C308.00416039 423.64532185 308.39498802 424.4225359 308.79765892 425.22330189 C309.632864 427.13422108 309.632864 427.13422108 309.632864 429.13422108 C310.70770042 429.11851063 311.78253685 429.10280018 312.88994408 429.08661366 C316.87619603 429.03232997 320.86241528 428.99787686 324.84892845 428.96942616 C326.57457027 428.95433592 328.30017372 428.93386132 330.02568626 428.90790272 C332.50551888 428.87152899 334.98484464 428.85449749 337.46489525 428.84125233 C338.23686745 428.82576847 339.00883965 428.81028461 339.80420494 428.79433155 C342.66314426 428.79343246 345.03546692 428.8331353 347.6184597 430.1349535 C349.28311304 433.41578291 349.05913995 436.81946336 349.0313015 440.41547108 C349.03417168 441.22536488 349.03704185 442.03525867 349.03999901 442.86969471 C349.04203942 444.58108692 349.03651109 446.29250246 349.02397728 448.00384998 C349.00792257 450.62465997 349.02382594 453.24392785 349.04302025 455.86468983 C349.04103781 457.52745365 349.03719413 459.19021651 349.0313015 460.85297108 C349.03737419 461.63740589 349.04344688 462.42184071 349.0497036 463.23004627 C348.97946379 468.65863312 348.97946379 468.65863312 347.38883686 470.84121668 C345.15657638 472.48493377 343.9070279 472.51006375 341.14911461 472.5117445 C340.22537513 472.51956774 339.30163565 472.52739098 338.34990406 472.53545129 C337.33347859 472.52875913 336.31705313 472.52206696 335.26982689 472.515172 C334.19132249 472.51985198 333.11281809 472.52453195 332.00163174 472.52935374 C328.36947134 472.54136801 324.73768378 472.53182122 321.10552025 472.52240467 C318.5089909 472.5264675 315.91246328 472.53180775 313.31593895 472.53833485 C306.98461198 472.55169355 300.65339154 472.54878498 294.32206035 472.54009692 C289.17769733 472.53332916 284.03336422 472.53239972 278.88899803 472.53566837 C278.1575753 472.53612807 277.42615257 472.53658777 276.67256552 472.5370614 C275.18681931 472.53802055 273.7010731 472.53899319 272.21532691 472.53997917 C258.27466352 472.54853932 244.33405925 472.53868916 230.39340556 472.52257808 C218.42469281 472.50917432 206.45606735 472.51150223 194.48735619 472.52533436 C180.59749571 472.54137916 166.70768709 472.54771529 152.81781864 472.53849757 C151.33745576 472.53754189 149.85709287 472.53659878 148.37672997 472.53566837 C147.28410295 472.53497413 147.28410295 472.53497413 146.16940266 472.53426587 C141.02961648 472.53167267 135.88986312 472.53605406 130.75008202 472.54310703 C123.83575587 472.55238628 116.92159776 472.54580532 110.00728798 472.52842426 C107.46393293 472.52444463 104.92056405 472.5256185 102.37721443 472.53221226 C98.91658626 472.54035946 95.4564947 472.53018862 91.99590111 472.515172 C90.97947564 472.52186417 89.96305017 472.52855633 88.91582394 472.53545129 C87.99208446 472.52762805 87.06834497 472.51980481 86.11661339 472.5117445 C85.31740943 472.51125744 84.51820547 472.51077039 83.69478321 472.51026857 C81.07195052 472.03192313 80.19260191 471.27442018 78.632864 469.13422108 C78.33456348 466.2990529 78.21247844 463.68809183 78.2344265 460.85297108 C78.23155632 460.04307728 78.22868614 459.23318348 78.22572899 458.39874744 C78.22368857 456.68735524 78.2292169 454.9759397 78.24175072 453.26459217 C78.25780543 450.64378218 78.24190206 448.02451431 78.22270775 445.40375233 C78.22469019 443.7409885 78.22853387 442.07822564 78.2344265 440.41547108 C78.22835381 439.63103626 78.22228111 438.84660145 78.2160244 438.03839588 C78.25336041 435.15282705 78.32675173 432.73753115 79.6472683 430.1349535 C82.89719861 428.4970014 86.24767589 428.76998477 89.80083275 428.84125233 C90.59564552 428.84549717 91.3904583 428.84974201 92.20935631 428.85411549 C94.74670421 428.87090177 97.28325638 428.90855284 99.820364 428.94672108 C101.54105565 428.96176803 103.26175975 428.97545642 104.98247337 428.9877367 C109.19957662 429.020805 113.41608542 429.07258613 117.632864 429.13422108 C117.8686013 428.33677479 118.10433861 427.5393285 118.34721947 426.71771717 C119.96137245 422.2185646 122.04696182 418.05860589 124.2031765 413.79828358 C124.6442675 412.91893147 125.08535851 412.03957935 125.5398159 411.13358021 C126.94207044 408.34021813 128.34987816 405.54969797 129.757864 402.75922108 C130.71265962 400.85966669 131.66709074 398.95992905 132.62114525 397.06000233 C134.95416791 392.41594469 137.2917497 387.77420443 139.632864 383.13422108 C138.89386895 383.13698646 138.15487391 383.13975183 137.39348507 383.14260101 C119.38975278 383.20893174 101.38604498 383.25853612 83.38221645 383.28965759 C74.67560048 383.30510877 65.9690662 383.32616475 57.26250267 383.36053944 C49.67148086 383.39049546 42.08051823 383.40980879 34.48943895 383.41648656 C30.47216584 383.42038834 26.45506203 383.42952135 22.43784332 383.45141125 C18.65151372 383.47187457 14.86542209 383.47803514 11.07904243 383.47354412 C9.69439778 383.47436494 8.30974461 383.48027183 6.92514801 383.4918375 C-4.93091178 383.58595899 -14.10796142 381.87635575 -23.367136 374.13422108 C-30.24428354 366.76263809 -33.48301552 358.5305726 -33.50135708 348.46123886 C-33.50581492 347.32309705 -33.51027277 346.18495523 -33.5148657 345.01232427 C-33.51468133 343.76662477 -33.51449697 342.52092527 -33.51430702 341.2374773 C-33.51760804 339.89702834 -33.52133411 338.55658037 -33.5254485 337.21613365 C-33.53544955 333.53368318 -33.53918224 329.85124901 -33.54183781 326.16878688 C-33.54574649 322.19654931 -33.55532443 318.22432458 -33.56405067 314.25209522 C-33.58379909 304.659677 -33.5938792 295.06725775 -33.60277846 285.47482428 C-33.607164 280.95513646 -33.61253012 276.4354498 -33.61776733 271.9157629 C-33.63477794 256.88715928 -33.64927153 241.85855638 -33.65651608 226.82994461 C-33.6584259 222.93128871 -33.66034624 219.03263281 -33.66230202 215.13397694 C-33.66278576 214.16501175 -33.6632695 213.19604657 -33.6637679 212.19771881 C-33.67206606 196.5053807 -33.69740013 180.81311888 -33.72988269 165.12081408 C-33.76297532 149.00209943 -33.78096683 132.88342352 -33.78416032 116.76467472 C-33.78632336 107.71774378 -33.79504194 98.67092408 -33.82062149 89.6240263 C-33.84235859 81.9184204 -33.85036412 74.21295277 -33.84065471 66.50731968 C-33.83611872 62.57869824 -33.83795506 58.65036192 -33.85741615 54.72177982 C-33.87511134 51.11841593 -33.87399937 47.51554381 -33.85851886 43.91217423 C-33.85503955 42.00553436 -33.87112157 40.09888896 -33.88812333 38.19232172 C-33.80002703 26.32010545 -31.18592923 16.8615963 -22.8124485 8.26703358 C-15.72409657 2.08454131 -9.26168276 -0.01974958 0 0 Z " fill="#010101" transform="translate(42.367136001586914,19.865778923034668)"/>
<path d="M0 0 C1.81031077 -0.00261825 3.62061931 -0.00787504 5.43091577 -0.015535 C10.39336229 -0.02892748 15.35502927 -0.00498489 20.31737649 0.02513337 C25.67309589 0.0510712 31.02877219 0.04227399 36.38453674 0.03771973 C45.65969296 0.03457532 54.93459572 0.05338238 64.20968819 0.08714676 C77.61983091 0.13593227 91.02985122 0.15153784 104.44007307 0.15907471 C126.19778398 0.17220283 147.95535984 0.21212264 169.71299744 0.26889038 C190.84710515 0.32397389 211.98117617 0.3664399 233.11534119 0.39193726 C234.41829374 0.3935136 235.7212463 0.39508994 237.06368227 0.39671405 C243.60028546 0.40454434 250.13688892 0.41212657 256.67349255 0.41958547 C310.8915881 0.48177445 365.10953727 0.58744356 419.32749939 0.7215271 C419.35556126 4.03628831 419.37224416 7.35101828 419.3870697 10.66586304 C419.39505585 11.59297089 419.40304199 12.52007874 419.41127014 13.47528076 C419.4402047 22.13050866 418.46599441 30.44496823 417.07749939 38.9715271 C416.84379089 40.46439851 416.61039648 41.95731913 416.37730408 43.45028687 C414.81237674 53.32812931 413.21744881 63.13131279 410.32749939 72.7215271 C410.03923279 73.67946167 409.75096619 74.63739624 409.45396423 75.62435913 C401.6329657 101.11687878 391.22610762 124.94932946 377.32749939 147.7215271 C376.80913513 148.58012329 376.29077087 149.43871948 375.75669861 150.32333374 C374.98930359 151.54331055 374.98930359 151.54331055 374.20640564 152.78793335 C373.52880188 153.87376709 373.52880188 153.87376709 372.83750916 154.98153687 C370.18536928 158.03760815 367.22440766 158.13699086 363.32749939 158.7215271 C361.08075355 160.50291687 361.08075355 160.50291687 361.30015564 162.86605835 C361.3446283 164.18670288 361.3446283 164.18670288 361.38999939 165.5340271 C360.86447424 173.80009973 354.93072219 179.14388979 349.32749939 184.7215271 C348.66749939 185.0515271 348.00749939 185.3815271 347.32749939 185.7215271 C347.31870003 183.8147242 347.31870003 183.8147242 347.3097229 181.86940002 C347.25257989 169.90598272 347.1798626 157.94274867 347.09178448 145.97951794 C347.0470031 139.82867421 347.00776413 133.67789792 346.98106384 127.52694702 C346.95510837 121.59406656 346.91476115 115.66144453 346.86431313 109.72872353 C346.84759182 107.46208211 346.83611045 105.19539595 346.82988548 102.9287014 C346.82030162 99.76065164 346.79231081 96.59327096 346.75987244 93.42538452 C346.76202507 92.01090027 346.76202507 92.01090027 346.76422119 90.56784058 C346.74541397 89.27428902 346.74541397 89.27428902 346.72622681 87.9546051 C346.72161784 87.20518741 346.71700888 86.45576971 346.71226025 85.68364239 C346.22139755 83.18045326 345.30614308 82.28317571 343.32749939 80.7215271 C341.35963176 80.26381138 341.35963176 80.26381138 339.17906189 80.31747437 C338.34809998 80.30479019 337.51713806 80.29210602 336.66099548 80.27903748 C335.32028992 80.28344093 335.32028992 80.28344093 333.95249939 80.28793335 C333.03162537 80.2826915 332.11075134 80.27744965 331.16197205 80.27204895 C329.21520496 80.26562612 327.26839908 80.26696912 325.32164001 80.27548218 C322.33851772 80.28399565 319.35730758 80.25522927 316.37437439 80.22348022 C314.48374996 80.22186826 312.59312214 80.22244565 310.70249939 80.22543335 C309.80869568 80.21419937 308.91489197 80.20296539 307.9940033 80.19139099 C307.16304138 80.20077194 306.33207947 80.21015289 305.47593689 80.21981812 C304.74552185 80.21998428 304.01510681 80.22015045 303.26255798 80.22032166 C300.44252595 80.95074678 299.8050481 82.2491729 298.32749939 84.7215271 C297.89795494 87.54455084 297.89795494 87.54455084 297.99606323 90.69816589 C297.99797668 91.92201492 297.99989014 93.14586395 298.00186157 94.40679932 C298.01898333 95.76016486 298.0363089 97.11352784 298.05381775 98.46688843 C298.06117396 99.89451953 298.06706798 101.32215881 298.0716095 102.74980164 C298.08360031 105.82300239 298.10414593 108.89598703 298.13076591 111.96909523 C298.17100749 116.83148082 298.18104516 121.69363375 298.18481445 126.5561676 C298.19905163 140.38281347 298.23395741 154.20900329 298.34434509 168.0352478 C298.40507156 175.67259666 298.43014178 183.30919109 298.41540629 190.94677752 C298.40918697 194.98697515 298.42160479 199.02522863 298.47830009 203.06507301 C298.53159759 206.86698955 298.53840419 210.66617842 298.5100975 214.46833611 C298.50802572 215.86034588 298.52297693 217.25250536 298.55655479 218.64411163 C298.79565335 229.12819183 298.79565335 229.12819183 295.09257698 233.1470089 C288.75184558 237.7215271 288.75184558 237.7215271 285.32749939 237.7215271 C285.30562561 236.43520386 285.30562561 236.43520386 285.28330994 235.12289429 C285.22214461 231.93192297 285.14797177 228.74159123 285.06504822 225.55111694 C285.03185746 224.17200043 285.00380722 222.79274999 284.98106384 221.41342163 C284.94741297 219.42730404 284.8935521 217.44156151 284.83921814 215.4559021 C284.81303406 214.26190796 284.78684998 213.06791382 284.75987244 211.83773804 C284.20258276 207.62320074 284.20258276 207.62320074 281.32749939 204.7215271 C278.20260263 204.13544215 275.12357359 204.18557697 271.95249939 204.22543335 C271.03162537 204.22397812 270.11075134 204.22252289 269.16197205 204.22102356 C267.21516252 204.22268343 265.26833999 204.23425454 263.32164001 204.25497437 C260.3386522 204.28391888 257.35744205 204.27558749 254.37437439 204.26254272 C252.48374074 204.26878036 250.5931127 204.27717149 248.70249939 204.28793335 C247.80869568 204.28499771 246.91489197 204.28206207 245.9940033 204.27903748 C244.74756042 204.29806374 244.74756042 204.29806374 243.47593689 204.31747437 C242.74552185 204.32287735 242.01510681 204.32828033 241.26255798 204.33384705 C238.68242793 204.85076419 237.83373763 205.56914178 236.32749939 207.7215271 C235.85473261 210.24059186 235.85473261 210.24059186 235.89512634 213.1109314 C235.8654351 214.76230354 235.8654351 214.76230354 235.83514404 216.44703674 C235.82875412 217.63461075 235.8223642 218.82218475 235.81578064 220.04574585 C235.79782944 221.26228348 235.77987823 222.47882111 235.76138306 223.73222351 C235.70712542 227.62445593 235.67333389 231.51656464 235.63999939 235.4090271 C235.60684007 238.04511208 235.57235173 240.68118071 235.53648376 243.31723022 C235.45138965 249.78524014 235.38465169 256.25321236 235.32749939 262.7215271 C231.03749939 264.0415271 226.74749939 265.3615271 222.32749939 266.7215271 C222.31941254 265.39799225 222.31132568 264.0744574 222.30299377 262.71081543 C222.22564032 250.26149187 222.13792872 237.81227906 222.03997231 225.36310005 C221.98994294 218.96225289 221.94361362 212.56142278 221.90562439 206.16049194 C221.86885534 199.98776612 221.82251855 193.81518065 221.76943588 187.64257431 C221.75084725 185.28299283 221.73575598 182.92338122 221.72415543 180.56375504 C221.70736929 177.26870478 221.67835304 173.97397914 221.64634705 170.67904663 C221.64418686 169.6950589 221.64202667 168.71107117 221.63980103 167.69726562 C221.62863754 166.80261597 221.61747406 165.90796631 221.60597229 164.98620605 C221.60044153 164.20636919 221.59491077 163.42653233 221.58921242 162.62306404 C221.48943561 160.48073579 221.48943561 160.48073579 219.32749939 158.7215271 C217.40378073 158.41672839 217.40378073 158.41672839 215.18492126 158.46273804 C213.90349243 158.45328156 213.90349243 158.45328156 212.59617615 158.44363403 C211.67220032 158.4476825 210.74822449 158.45173096 209.79624939 158.4559021 C208.8493927 158.45398865 207.90253601 158.4520752 206.92698669 158.45010376 C204.92295567 158.44874137 202.91891585 158.45244154 200.91490173 158.46078491 C197.83999386 158.47148363 194.76567025 158.46089138 191.69078064 158.4480896 C189.74676893 158.44941118 187.80275758 158.45197356 185.85874939 158.4559021 C184.47278564 158.44982941 184.47278564 158.44982941 183.05882263 158.44363403 C182.20453674 158.44993835 181.35025085 158.45624268 180.47007751 158.46273804 C179.71666077 158.46432922 178.96324402 158.46592041 178.18699646 158.46755981 C176.08160932 158.56414028 176.08160932 158.56414028 174.32749939 160.7215271 C174.02455505 162.66806833 174.02455505 162.66806833 174.0735321 164.92805481 C174.06789246 165.80995483 174.06225281 166.69185486 174.05644226 167.60047913 C174.06049072 168.57040298 174.06453918 169.54032684 174.06871033 170.53964233 C174.06520569 171.55924042 174.06170105 172.5788385 174.05809021 173.6293335 C174.04925943 177.01299775 174.05512728 180.39645433 174.06187439 183.78012085 C174.06052802 186.12420187 174.05858773 188.46828261 174.05607605 190.81236267 C174.05312287 195.73108573 174.05742829 200.64973628 174.0667572 205.56845093 C174.07814552 211.8816452 174.07159733 218.19466932 174.05961227 224.50785732 C174.05239357 229.35047188 174.05468177 234.19304594 174.05986786 239.0356617 C174.06120465 241.36373985 174.05955562 243.69182165 174.05490875 246.01989555 C174.04984411 249.27136886 174.05755337 252.52256475 174.06871033 255.77401733 C174.06263763 257.22586678 174.06263763 257.22586678 174.05644226 258.70704651 C174.06490173 260.03412628 174.06490173 260.03412628 174.0735321 261.38801575 C174.07428616 262.15695884 174.07504021 262.92590193 174.07581711 263.71814632 C174.21573565 266.03776294 174.21573565 266.03776294 176.32749939 268.7215271 C179.50259921 269.77989371 181.97032322 269.92396499 185.30796814 270.03793335 C186.47134705 270.07982788 187.63472595 270.12172241 188.83335876 270.16488647 C190.65577087 270.22386108 190.65577087 270.22386108 192.51499939 270.2840271 C193.74154236 270.32721069 194.96808533 270.37039429 196.23179626 270.41488647 C199.2635832 270.521058 202.29545254 270.62310662 205.32749939 270.7215271 C185.96283097 280.79967587 158.1405602 280.04190964 136.79917908 279.94857788 C134.94403591 279.9480117 133.0888923 279.94833435 131.23374939 279.94946289 C126.26810922 279.95002933 121.30256859 279.93839193 116.33695126 279.92431498 C111.12134259 279.91168739 105.90573085 279.91062775 100.69010925 279.90826416 C90.84511475 279.90208434 81.00016544 279.88572161 71.15519071 279.86556518 C59.93366502 279.84309635 48.71213702 279.83218531 37.49059439 279.82217431 C14.43620447 279.80135169 -8.61814552 279.76624484 -31.67250061 279.7215271 C-31.78696677 246.0983018 -31.87505999 212.47512501 -31.92782726 178.85174811 C-31.93408073 174.88142021 -31.94055234 170.9110927 -31.94715881 166.94076538 C-31.94847037 166.15035095 -31.94978192 165.35993652 -31.95113321 164.54557014 C-31.97288461 151.75042584 -32.01230464 138.95539397 -32.05826459 126.16031635 C-32.10503669 113.02954064 -32.13279759 99.89882377 -32.14294308 86.76796818 C-32.14980071 78.66669592 -32.17145275 70.56574144 -32.21208294 62.46456701 C-32.24165907 56.25057468 -32.24477283 50.03682417 -32.23803902 43.82277107 C-32.23941508 41.27504584 -32.24936758 38.72730863 -32.26852798 36.17965508 C-32.29341044 32.70065697 -32.28742164 29.22301768 -32.27377319 25.74398804 C-32.2883374 24.73618947 -32.30290161 23.7283909 -32.31790715 22.69005299 C-32.23554691 14.9214231 -30.27788624 10.50899366 -24.96021068 4.92276227 C-17.74824504 -1.06218026 -8.83646041 -0.09496063 0 0 Z " fill="#E5E8ED" transform="translate(53.67250061035156,31.278472900390625)"/>
<path d="M0 0 C6.74849255 1.73348375 11.41118091 3.85021864 15.18157554 9.89402193 C18.19435764 16.22346838 18.55739836 21.73118501 18.48101807 28.67420959 C18.48444214 29.81845901 18.48786621 30.96270844 18.49139404 32.14163208 C18.49799357 35.97236364 18.47595638 39.80238943 18.45410156 43.63305664 C18.45064764 46.42759074 18.4532335 49.22211191 18.45556259 52.01664639 C18.45768427 58.73578304 18.43926368 65.45470486 18.41355728 72.1737864 C18.3846995 79.95014773 18.38157515 87.72638097 18.37841797 95.50280762 C18.35743688 116.022739 18.30159218 136.54262275 18.25 157.0625 C18.1675 202.911875 18.085 248.76125 18 296 C-137.1 296 -292.2 296 -452 296 C-452 203.93 -452 111.86 -452 17 C-451.67 17 -451.34 17 -451 17 C-451 103.46 -451 189.92 -451 279 C-420.495625 278.896875 -389.99125 278.79375 -358.5625 278.6875 C-344.18151733 278.65015747 -344.18151733 278.65015747 -329.51000977 278.61206055 C-320.82182201 278.57544273 -320.82182201 278.57544273 -312.13365173 278.5349884 C-308.30140481 278.51724618 -304.46923242 278.50748846 -300.63694763 278.50288391 C-279.56015964 278.47370714 -258.8593217 278.39173712 -238 275 C-236.13301554 274.71085008 -234.26591484 274.42244969 -232.3986969 274.1348114 C-224.98413709 273.27514867 -224.98413709 273.27514867 -218 271 C-218.64026123 270.98541748 -219.28052246 270.97083496 -219.94018555 270.95581055 C-222.85654831 270.88108618 -225.77179687 270.78450707 -228.6875 270.6875 C-229.69490234 270.66494141 -230.70230469 270.64238281 -231.74023438 270.61914062 C-241.15624701 270.27730518 -241.15624701 270.27730518 -245 267 C-246.15543773 264.68912455 -246.13048837 263.36517251 -246.14044189 260.79347229 C-246.14615204 259.91157227 -246.15186218 259.02967224 -246.15774536 258.12104797 C-246.15942215 256.66616219 -246.15942215 256.66616219 -246.16113281 255.18188477 C-246.16609772 254.16228668 -246.17106262 253.1426886 -246.17617798 252.0921936 C-246.19082155 248.70859104 -246.1976047 245.32503533 -246.203125 241.94140625 C-246.20887393 239.59732562 -246.21463169 237.25324501 -246.22039795 234.90916443 C-246.23091371 229.99046611 -246.23675285 225.07178416 -246.24023438 220.15307617 C-246.2457252 213.83984652 -246.26976352 207.52683189 -246.29820633 201.21366978 C-246.31679632 196.37106181 -246.32203633 191.52850605 -246.32357025 186.6858654 C-246.32660473 184.35777547 -246.33465982 182.02968662 -246.34775543 179.70163155 C-246.36474239 176.45008928 -246.36295377 173.19907795 -246.35644531 169.94750977 C-246.3656601 168.97961014 -246.37487488 168.01171051 -246.3843689 167.01448059 C-246.37601517 165.68740082 -246.37601517 165.68740082 -246.36749268 164.33351135 C-246.36895924 163.56456826 -246.3704258 162.79562517 -246.3719368 162.00338078 C-245.90010799 159.46194696 -245.01114655 158.57459499 -243 157 C-241.02697754 156.61904907 -241.02697754 156.61904907 -238.75976562 156.61181641 C-237.90878296 156.60235992 -237.05780029 156.59290344 -236.18103027 156.5831604 C-235.26535278 156.58923309 -234.34967529 156.59530579 -233.40625 156.6015625 C-231.9916449 156.59725723 -231.9916449 156.59725723 -230.54846191 156.59286499 C-228.55460001 156.59082354 -226.56071812 156.59635907 -224.56689453 156.60888672 C-221.51158956 156.62493911 -218.45760748 156.60904067 -215.40234375 156.58984375 C-213.46614291 156.59182617 -211.52994289 156.59566981 -209.59375 156.6015625 C-208.67807251 156.59548981 -207.76239502 156.58941711 -206.81896973 156.5831604 C-205.96798706 156.59261688 -205.11700439 156.60207336 -204.24023438 156.61181641 C-203.11796448 156.61539658 -203.11796448 156.61539658 -201.97302246 156.61904907 C-199.39879585 157.11608042 -198.62882177 157.96877467 -197 160 C-196.61523914 162.0089674 -196.61523914 162.0089674 -196.60127258 164.3469696 C-196.58873444 165.23457977 -196.57619629 166.12218994 -196.5632782 167.03669739 C-196.56471329 168.00773911 -196.56614838 168.97878082 -196.56762695 169.97924805 C-196.55233948 171.51609253 -196.55233948 171.51609253 -196.53674316 173.08398438 C-196.50650545 176.47661735 -196.49733063 179.86896848 -196.48828125 183.26171875 C-196.47144259 185.61156663 -196.45329346 187.96140547 -196.43388367 190.31123352 C-196.3862895 196.5007952 -196.35654098 202.6903202 -196.33044434 208.88000488 C-196.30068634 215.19416554 -196.2541397 221.50819963 -196.20898438 227.82226562 C-196.12284408 240.21477768 -196.05554649 252.60731571 -196 265 C-192.04 264.01 -188.08 263.02 -184 262 C-184.02094727 260.35483398 -184.04189453 258.70966797 -184.06347656 257.01464844 C-184.13582003 250.9169178 -184.18177987 244.81922517 -184.21972656 238.72119141 C-184.23985475 236.08082706 -184.26715987 233.44050735 -184.30175781 230.80029297 C-184.3502205 227.00737499 -184.3729572 223.21504584 -184.390625 219.421875 C-184.41127014 218.23946228 -184.43191528 217.05704956 -184.45318604 215.83880615 C-184.45348816 214.73796692 -184.45379028 213.63712769 -184.45410156 212.50292969 C-184.46298401 211.53474304 -184.47186646 210.5665564 -184.48101807 209.56903076 C-183.85173035 206.20811851 -182.70350707 205.04171914 -180 203 C-177.95141602 202.4853363 -177.95141602 202.4853363 -175.75390625 202.46655273 C-174.51241821 202.44279823 -174.51241821 202.44279823 -173.24584961 202.41856384 C-172.36034424 202.42352371 -171.47483887 202.42848358 -170.5625 202.43359375 C-169.6454126 202.42739517 -168.7283252 202.42119659 -167.78344727 202.41481018 C-165.84685324 202.40771458 -163.91019818 202.4108815 -161.97363281 202.42358398 C-159.00992713 202.43745354 -156.04937666 202.40337229 -153.0859375 202.36523438 C-151.20312423 202.3642832 -149.320307 202.36614193 -147.4375 202.37109375 C-146.55199463 202.35783554 -145.66648926 202.34457733 -144.75415039 202.33091736 C-140.64863053 202.39308663 -138.67706706 202.44252149 -135.43457031 205.11230469 C-133.69832976 208.60724228 -133.54073867 210.93691971 -133.609375 214.83203125 C-133.62226563 216.12431641 -133.63515625 217.41660156 -133.6484375 218.74804688 C-133.68185366 220.10287546 -133.71571338 221.45769317 -133.75 222.8125 C-133.77007966 224.18682317 -133.78832787 225.56117439 -133.8046875 226.93554688 C-133.85178319 230.29111476 -133.9209894 233.64507729 -134 237 C-129.81147797 235.16426854 -126.31751247 233.17351637 -123 230 C-121.39771977 225.34050305 -121.5861134 220.75073475 -121.72290039 215.88232422 C-121.72268892 214.45099028 -121.71757369 213.01964997 -121.70794678 211.58834839 C-121.69781571 208.51581211 -121.72225903 205.44622263 -121.7740345 202.37411118 C-121.85584487 197.51588064 -121.86097287 192.65937374 -121.85630798 187.80056763 C-121.85812936 180.11734896 -121.9124241 172.43552482 -121.9885754 164.75271714 C-122.12350673 150.99033368 -122.17397336 137.22754412 -122.19801325 123.46456158 C-122.20859037 118.63595116 -122.24368082 113.80831139 -122.29917634 108.98001456 C-122.33048241 105.97740042 -122.34586616 102.97484336 -122.35760498 99.97209549 C-122.36664597 98.58087549 -122.38264758 97.1896805 -122.40615654 95.79862976 C-122.43748922 93.89826521 -122.44188396 91.99751365 -122.44496155 90.09689331 C-122.45556138 89.0339398 -122.46616121 87.97098629 -122.47708225 86.87582207 C-121.87849618 83.26758253 -120.52557244 81.59529427 -118 79 C-115.95141602 78.37181091 -115.95141602 78.37181091 -113.75390625 78.36889648 C-112.92624756 78.35636337 -112.09858887 78.34383026 -111.24584961 78.33091736 C-110.36034424 78.34417557 -109.47483887 78.35743378 -108.5625 78.37109375 C-107.6454126 78.36868179 -106.7283252 78.36626984 -105.78344727 78.36378479 C-103.84679841 78.36476317 -101.91012156 78.37815457 -99.97363281 78.40307617 C-97.01010084 78.43738307 -94.04955101 78.42373605 -91.0859375 78.40429688 C-89.20311231 78.41119547 -87.32029482 78.42086797 -85.4375 78.43359375 C-84.55199463 78.42863388 -83.66648926 78.42367401 -82.75415039 78.41856384 C-81.9264917 78.43440018 -81.09883301 78.45023651 -80.24609375 78.46655273 C-79.15832642 78.4758506 -79.15832642 78.4758506 -78.04858398 78.4853363 C-74.8815822 79.28097898 -73.85889437 80.29426278 -72 83 C-71.39768064 86.23835852 -71.43632655 89.43923788 -71.45410156 92.72558594 C-71.44376389 93.71128067 -71.43342621 94.6969754 -71.42277527 95.71253967 C-71.39328203 98.96998358 -71.39184668 102.2268079 -71.390625 105.484375 C-71.37564781 107.74311513 -71.35892164 110.00184429 -71.34051514 112.26055908 C-71.29677799 118.20518489 -71.27682829 124.14966295 -71.26177979 130.09442139 C-71.24223175 136.16069295 -71.20025913 142.22680441 -71.16015625 148.29296875 C-71.08478506 160.1952632 -71.03453533 172.09752193 -71 184 C-69.72719706 182.58510266 -68.4568417 181.16800334 -67.1875 179.75 C-66.47980469 178.96109375 -65.77210938 178.1721875 -65.04296875 177.359375 C-61.42718249 173.18359124 -59.70224187 171.12320801 -59.625 165.5 C-59.2733692 160.33585359 -59.2733692 160.33585359 -56.8125 157.3125 C-53.6247971 155.82490531 -51.47784656 155.67647939 -48 156 C-47.59587891 154.90365234 -47.59587891 154.90365234 -47.18359375 153.78515625 C-46.02986957 151.07028713 -44.70780841 148.87931468 -43.0625 146.4375 C-29.37933128 125.14626237 -19.35715755 102.18700247 -12 78 C-11.78005371 77.29810547 -11.56010742 76.59621094 -11.33349609 75.87304688 C-7.26292335 62.79226284 -5.02842197 49.52937761 -3 36 C-2.78184768 34.62490505 -2.56317722 33.24989209 -2.34375 31.875 C-0.76678683 21.30007048 -0.37934512 10.67255107 0 0 Z " fill="#C5CBD3" transform="translate(473,32)"/>
<path d="M0 0 C155.1 0 310.2 0 470 0 C470 34 470 34 465 44 C462.61328125 46.25390625 462.61328125 46.25390625 460.3125 47.5625 C459.54550781 48.01753906 458.77851563 48.47257812 457.98828125 48.94140625 C454.14665721 50.98675029 451.24240901 51.14545446 446.94142914 51.1398077 C446.20260974 51.14275912 445.46379034 51.14571055 444.70258248 51.14875141 C442.20124713 51.15748469 439.69995778 51.15902688 437.1986084 51.16062927 C435.39734553 51.16535738 433.59608373 51.1705079 431.79482317 51.17604691 C426.82476111 51.18998946 421.85470639 51.1975469 416.88462973 51.2040199 C412.62657918 51.21038043 408.36854077 51.22045205 404.11049777 51.23058056 C390.07777504 51.26394504 376.04504491 51.2854346 362.01229548 51.30378041 C358.35916737 51.30857352 354.70603956 51.31355708 351.05291176 51.31858563 C328.37845822 51.34955735 305.70400216 51.37624949 283.02953339 51.39300442 C277.77457169 51.39695408 272.51961004 51.40095705 267.26464844 51.4050293 C265.30544569 51.40654184 265.30544569 51.40654184 263.3066631 51.40808494 C242.14854678 51.4250914 220.99054744 51.46619825 199.83248824 51.51705229 C178.12031871 51.56880964 156.40820935 51.59794432 134.69597864 51.6052013 C122.50122969 51.60986619 110.30667219 51.62464504 98.11198425 51.6649456 C87.72580489 51.6992272 77.33985152 51.71319248 66.95361882 51.70052146 C61.65408546 51.69469007 56.35503015 51.69859268 51.0555687 51.7286911 C46.20181603 51.75603307 41.34888151 51.75557014 36.49511081 51.73318065 C34.74129098 51.72995547 32.98741657 51.73683922 31.23368758 51.75497787 C21.64545456 51.84811799 13.59772089 51.67482987 6 45 C-4.86952806 31.68482812 0 18.64999653 0 0 Z " fill="#838691" transform="translate(21,340)"/>
<path d="M0 0 C0.60714844 0.44472656 1.21429688 0.88945313 1.83984375 1.34765625 C16.55525463 12.66986651 25.60587211 31.39866284 30 49 C30.19335938 49.73734375 30.38671875 50.4746875 30.5859375 51.234375 C33.88292112 73.2557373 29.10412071 96.18423238 16.09765625 114.328125 C12.60764299 118.77350502 8.96230534 122.96937905 5 127 C4.31421875 127.69867188 3.6284375 128.39734375 2.921875 129.1171875 C-15.08500694 146.25707142 -37.56226055 150.56365645 -61.5234375 150.26953125 C-78.68996995 149.7686968 -95.15212074 142.29511413 -108 131 C-109.10021484 130.11248047 -109.10021484 130.11248047 -110.22265625 129.20703125 C-125.14382845 116.79404923 -135.95761412 97.39312204 -138 78 C-139.36636218 50.19595301 -134.18701138 28.45164891 -115.54296875 7.19921875 C-84.96650408 -25.16796128 -34.361609 -27.96604725 0 0 Z " fill="#030302" transform="translate(187,78)"/>
<path d="M0 0 C0.82773422 -0.01268417 1.65546844 -0.02536835 2.50828552 -0.03843689 C3.39895218 -0.03550125 4.28961884 -0.03256561 5.20727539 -0.02954102 C6.12577774 -0.03478287 7.04428009 -0.04002472 7.99061584 -0.04542542 C9.93318674 -0.05184886 11.87579651 -0.05050445 13.81835938 -0.04199219 C16.79050023 -0.03348856 19.76071544 -0.06222833 22.73266602 -0.09399414 C24.62003523 -0.0956064 26.50740785 -0.09502816 28.39477539 -0.09204102 C29.72773903 -0.10889198 29.72773903 -0.10889198 31.08763123 -0.12608337 C31.91851761 -0.11670242 32.74940399 -0.10732147 33.60546875 -0.09765625 C34.33366318 -0.09749008 35.0618576 -0.09732391 35.81211853 -0.09715271 C38.85718971 0.64541359 39.9411122 1.94576708 41.86743164 4.40405273 C42.26066408 7.00030352 42.40872786 9.17364127 42.37536621 11.76757812 C42.38160617 12.51138009 42.38784614 13.25518206 42.39427519 14.02152348 C42.41023708 16.51524059 42.39758908 19.00798453 42.38500977 21.50170898 C42.39042949 23.28889537 42.3975513 25.0760773 42.40625 26.86325073 C42.42450417 31.71861066 42.41740719 36.57363108 42.40473366 41.42899704 C42.39461684 46.50671056 42.40399567 51.58439473 42.41027832 56.66210938 C42.41755857 65.18975044 42.40795711 73.717253 42.38891602 82.24487305 C42.36714657 92.10838832 42.37419767 101.97157289 42.39622164 111.83508015 C42.41436488 120.29887634 42.41693923 128.7625729 42.40646696 137.22638226 C42.40022611 142.28355519 42.39941265 147.34057261 42.41261292 152.3977356 C42.42415513 157.1518924 42.41617555 161.90562222 42.39303589 166.65973282 C42.38774007 168.40606095 42.38927746 170.15242492 42.39808655 171.89873886 C42.40899162 174.27982255 42.39534105 176.65953165 42.37536621 179.04052734 C42.3842891 179.73430009 42.39321198 180.42807283 42.40240526 181.142869 C42.3476159 184.50174968 42.06287818 186.15463231 39.9641428 188.83294773 C37.59662079 190.60697638 36.5268492 190.90509508 33.60546875 190.90576172 C32.77458237 190.91514267 31.94369598 190.92452362 31.08763123 190.93418884 C30.1989888 190.92295486 29.31034637 190.91172089 28.39477539 190.90014648 C27.01558678 190.90232933 27.01558678 190.90232933 25.60853577 190.90455627 C23.6677025 190.90289835 21.72685594 190.89134897 19.78613281 190.87060547 C16.8120152 190.84162177 13.83967692 190.85000424 10.86547852 190.86303711 C8.97940213 190.85680047 7.09333137 190.84841012 5.20727539 190.83764648 C4.31660873 190.84058212 3.42594208 190.84351776 2.50828552 190.84654236 C1.6805513 190.83385818 0.85281708 190.82117401 0 190.80810547 C-0.72739883 190.80270248 -1.45479767 190.7972995 -2.20423889 190.79173279 C-4.8429792 190.26122854 -5.54396032 189.59305098 -7.13256836 187.40405273 C-7.42716781 184.8801283 -7.53747702 182.60253797 -7.51351929 180.078125 C-7.51819926 179.32630479 -7.52287923 178.57448458 -7.52770102 177.79988194 C-7.53969526 175.27322973 -7.53017675 172.7471155 -7.52075195 170.22045898 C-7.5248157 168.41209597 -7.53015646 166.60373544 -7.53668213 164.79537964 C-7.55038503 159.87809564 -7.54504483 154.961 -7.53554487 150.04371262 C-7.52796366 144.90413648 -7.5349896 139.76457675 -7.53970337 134.625 C-7.54516541 125.99305315 -7.53795754 117.36118323 -7.52368164 108.72924805 C-7.50735428 98.74138378 -7.51264247 88.75370321 -7.52916086 78.76584339 C-7.54276294 70.19933656 -7.54470165 61.63288511 -7.53684485 53.06637096 C-7.5321613 47.94608231 -7.53156218 42.82588007 -7.54145432 37.70559692 C-7.55010313 32.89243063 -7.54414034 28.0795018 -7.52677155 23.26636124 C-7.52279553 21.49703491 -7.52395972 19.72768869 -7.53055954 17.95837021 C-7.53872131 15.54863467 -7.52851923 13.1396667 -7.51351929 10.72998047 C-7.52021145 10.02483087 -7.52690362 9.31968126 -7.53379858 8.59316349 C-7.49880987 5.70815856 -7.4527369 3.84522409 -5.72927952 1.47041225 C-3.69844579 0.11412507 -2.434828 0.01808545 0 0 Z " fill="#020506" transform="translate(359.132568359375,110.595947265625)"/>
<path d="M0 0 C0.88399947 0.00092179 1.76799894 0.00184359 2.67878628 0.00279331 C3.68985943 0.00141865 4.70093258 0.00004398 5.74264431 -0.00137234 C7.42038433 0.00402058 7.42038433 0.00402058 9.13201809 0.00952244 C10.30259258 0.00937641 11.47316708 0.00923038 12.67921352 0.00907993 C15.89807713 0.00965887 19.11689773 0.01468791 22.33575273 0.02165389 C25.6963417 0.02788826 29.05693143 0.02849129 32.41752529 0.0296793 C38.78529112 0.03279237 45.15303986 0.04100543 51.52079815 0.05102879 C58.76856499 0.06219068 66.01633263 0.06770057 73.26410592 0.07272422 C88.17703605 0.08318806 103.08995017 0.10078703 118.0028677 0.12304783 C119.59082356 3.1328388 121.17756148 6.14327029 122.76409817 9.15380955 C123.20904125 9.99711323 123.65398434 10.84041691 124.11241055 11.70927525 C127.87222038 18.84603321 131.53070084 26.02777301 135.1278677 33.24804783 C135.70278957 34.39402439 136.27771145 35.54000095 136.8700552 36.72070408 C137.41146145 37.80480564 137.9528677 38.8889072 138.5106802 40.00586033 C139.23215237 41.45049656 139.23215237 41.45049656 139.96819973 42.92431736 C141.0028677 45.12304783 141.0028677 45.12304783 141.0028677 46.12304783 C86.2228677 46.12304783 31.4428677 46.12304783 -24.9971323 46.12304783 C-19.74237151 35.02966393 -14.50009202 23.96456659 -8.9971323 12.99804783 C-8.42607761 11.85207127 -7.85502293 10.7060947 -7.26666355 9.52539158 C-6.45262058 7.89923923 -6.45262058 7.89923923 -5.6221323 6.24023533 C-5.14002293 5.27714451 -4.65791355 4.31405369 -4.1611948 3.3217783 C-2.48357477 0.15301865 -2.48357477 0.15301865 0 0 Z " fill="#5C5A67" transform="translate(197.99713230133057,402.8769521713257)"/>
<path d="M0 0 C1.53538058 10.76493272 2.54863603 21.51852345 3.125 32.375 C3.18920135 33.57572584 3.18920135 33.57572584 3.25469971 34.80070877 C4.20680482 54.9689292 2.68216702 71.3130887 -11.1328125 86.84765625 C-15.51176839 91.64640976 -20.16762795 96.09968423 -25 100.4375 C-25.59789085 100.97461357 -26.19578171 101.51172714 -26.81179047 102.06511688 C-34.28002724 108.72076925 -41.98968328 115.00584909 -50 121 C-63.49510705 107.71489052 -68.80840219 90.91884097 -69.375 72.3125 C-69.28891418 51.79947916 -60.86200043 34.35970674 -46.765625 19.671875 C-34.20486931 7.60369796 -17.58129336 -0.27539039 0 0 Z " fill="#DF523A" transform="translate(129,71)"/>
<path d="M0 0 C0.85098267 -0.00945648 1.70196533 -0.01891296 2.57873535 -0.02865601 C3.49441284 -0.02258331 4.41009033 -0.01651062 5.35351562 -0.01025391 C6.29658569 -0.01312408 7.23965576 -0.01599426 8.21130371 -0.01895142 C10.20516561 -0.02099287 12.1990475 -0.01545734 14.19287109 -0.00292969 C17.24817607 0.0131227 20.30215814 -0.00277574 23.35742188 -0.02197266 C25.29362272 -0.01999024 27.22982273 -0.0161466 29.16601562 -0.01025391 C30.53953186 -0.01936295 30.53953186 -0.01936295 31.9407959 -0.02865601 C32.79177856 -0.01919952 33.64276123 -0.00974304 34.51953125 0 C35.64180115 0.00358017 35.64180115 0.00358017 36.78674316 0.00723267 C39.36150418 0.5043672 40.13192387 1.35527858 41.75976562 3.38818359 C42.13728905 5.40438843 42.13728905 5.40438843 42.14071655 7.75292969 C42.15340576 9.09046295 42.15340576 9.09046295 42.16635132 10.45501709 C42.16027863 11.43069641 42.15420593 12.40637573 42.14794922 13.41162109 C42.15320618 14.44111877 42.15846313 15.47061646 42.16387939 16.53131104 C42.17710782 19.94208852 42.16833102 23.35240117 42.15820312 26.76318359 C42.16022304 29.12825612 42.16313378 31.49332805 42.16690063 33.85839844 C42.17132785 38.81825686 42.16488 43.77795335 42.15087891 48.73779297 C42.13378699 55.10371795 42.14362602 61.46926351 42.1615963 67.83517456 C42.17242329 72.71983716 42.16899275 77.60440942 42.16121292 82.48907471 C42.15920792 84.83669072 42.16168065 87.18431487 42.16865158 89.53192139 C42.17624806 92.80975148 42.16468667 96.08696227 42.14794922 99.36474609 C42.15705826 100.82826508 42.15705826 100.82826508 42.16635132 102.3213501 C42.15789185 103.21303894 42.14943237 104.10472778 42.14071655 105.0234375 C42.13958548 105.79845612 42.1384544 106.57347473 42.13728905 107.37197876 C41.66021936 109.91982122 40.77743954 110.80957939 38.75976562 112.38818359 C36.78674316 112.77586365 36.78674316 112.77586365 34.51953125 112.79223633 C33.66854858 112.8049205 32.81756592 112.81760468 31.9407959 112.83067322 C31.02511841 112.82773758 30.10944092 112.82480194 29.16601562 112.82177734 C28.22294556 112.8270192 27.27987549 112.83226105 26.30822754 112.83766174 C24.31438176 112.84408506 22.32049811 112.84274095 20.32666016 112.83422852 C17.27112605 112.82571525 14.21745884 112.85448082 11.16210938 112.88623047 C9.22591202 112.88784243 7.28971135 112.88726504 5.35351562 112.88427734 C4.43783813 112.89551132 3.52216064 112.9067453 2.57873535 112.9183197 C1.72775269 112.90893875 0.87677002 112.8995578 0 112.88989258 C-1.1222699 112.88964333 -1.1222699 112.88964333 -2.26721191 112.88938904 C-5.07802701 112.17535975 -5.72978799 110.81117646 -7.24023438 108.38818359 C-7.6177578 106.2645483 -7.6177578 106.2645483 -7.6211853 103.94114685 C-7.62964478 103.0564975 -7.63810425 102.17184814 -7.64682007 101.26039124 C-7.64074738 100.29765793 -7.63467468 99.33492462 -7.62841797 98.34301758 C-7.63367493 97.32312744 -7.63893188 96.3032373 -7.64434814 95.25244141 C-7.65755754 91.87956451 -7.64880713 88.50715908 -7.63867188 85.13427734 C-7.64069218 82.79305429 -7.64360325 80.45183186 -7.64736938 78.11061096 C-7.65179389 73.20380665 -7.64535686 68.29716614 -7.63134766 63.39038086 C-7.61424646 57.09286448 -7.62410235 50.79573138 -7.64206505 44.49822903 C-7.6528913 39.66418047 -7.649462 34.83022321 -7.64168167 29.99617195 C-7.63967695 27.67367571 -7.64214842 25.35117125 -7.64912033 23.02868462 C-7.65671663 19.78688377 -7.64515614 16.54570913 -7.62841797 13.30395508 C-7.63449066 12.33919754 -7.64056335 11.37444 -7.64682007 10.38044739 C-7.6383606 9.49861786 -7.62990112 8.61678833 -7.6211853 7.70823669 C-7.62005423 6.94189124 -7.61892315 6.17554579 -7.6177578 5.38597775 C-6.80047233 1.06103251 -4.05862282 0.01294747 0 0 Z " fill="#020202" transform="translate(421.240234375,188.61181640625)"/>
<path d="M0 0 C0.85098267 -0.00945648 1.70196533 -0.01891296 2.57873535 -0.02865601 C3.49441284 -0.02258331 4.41009033 -0.01651062 5.35351562 -0.01025391 C6.29658569 -0.01312408 7.23965576 -0.01599426 8.21130371 -0.01895142 C10.20516561 -0.02099287 12.1990475 -0.01545734 14.19287109 -0.00292969 C17.24817607 0.0131227 20.30215814 -0.00277574 23.35742188 -0.02197266 C25.29362272 -0.01999024 27.22982273 -0.0161466 29.16601562 -0.01025391 C30.53953186 -0.01936295 30.53953186 -0.01936295 31.9407959 -0.02865601 C32.79177856 -0.01919952 33.64276123 -0.00974304 34.51953125 0 C35.64180115 0.00358017 35.64180115 0.00358017 36.78674316 0.00723267 C39.36023432 0.50412201 40.13138009 1.35784732 41.75976562 3.38818359 C42.13728905 5.38597775 42.13728905 5.38597775 42.14071655 7.70823669 C42.15340576 9.03098099 42.15340576 9.03098099 42.16635132 10.38044739 C42.16027863 11.34520493 42.15420593 12.30996246 42.14794922 13.30395508 C42.15320618 14.3220929 42.15846313 15.34023071 42.16387939 16.38922119 C42.17710852 19.76272823 42.16833013 23.1357653 42.15820312 26.50927734 C42.16022317 28.84953401 42.16313403 31.18979005 42.16690063 33.53004456 C42.17132808 38.43862898 42.16487987 43.3470498 42.15087891 48.25561523 C42.1337964 54.55194103 42.1436199 60.84788294 42.1615963 67.1441946 C42.17243073 71.97828571 42.16898915 76.81228564 42.16121292 81.64637947 C42.15920949 83.96804919 42.16167517 86.28972715 42.16865158 88.61138725 C42.17625921 91.85548739 42.16467048 95.09896395 42.14794922 98.34301758 C42.15705826 99.78711754 42.15705826 99.78711754 42.16635132 101.26039124 C42.15789185 102.14504059 42.14943237 103.02968994 42.14071655 103.94114685 C42.13958548 104.70786933 42.1384544 105.47459181 42.13728905 106.2645483 C41.65581026 108.97295072 40.5984502 110.37212406 38.75976562 112.38818359 C36.78674316 112.89611816 36.78674316 112.89611816 34.51953125 112.90576172 C33.66854858 112.91837036 32.81756592 112.930979 31.9407959 112.94396973 C31.02511841 112.9358728 30.10944092 112.92777588 29.16601562 112.91943359 C27.75141052 112.92517395 27.75141052 112.92517395 26.30822754 112.93103027 C24.31436089 112.93375222 22.3204587 112.92637129 20.32666016 112.90966797 C17.2710017 112.88826231 14.21769452 112.90946001 11.16210938 112.93505859 C9.22590626 112.93241537 7.28970461 112.9272905 5.35351562 112.91943359 C4.43783813 112.92753052 3.52216064 112.93562744 2.57873535 112.94396973 C1.72775269 112.93136108 0.87677002 112.91875244 0 112.90576172 C-0.74817993 112.90257935 -1.49635986 112.89939697 -2.26721191 112.89611816 C-5.07462465 112.1733783 -5.72979686 110.81070866 -7.24023438 108.38818359 C-7.6177578 106.2645483 -7.6177578 106.2645483 -7.6211853 103.94114685 C-7.62964478 103.0564975 -7.63810425 102.17184814 -7.64682007 101.26039124 C-7.64074738 100.29765793 -7.63467468 99.33492462 -7.62841797 98.34301758 C-7.63367493 97.32312744 -7.63893188 96.3032373 -7.64434814 95.25244141 C-7.65755754 91.87956451 -7.64880713 88.50715908 -7.63867188 85.13427734 C-7.64069218 82.79305429 -7.64360325 80.45183186 -7.64736938 78.11061096 C-7.65179389 73.20380665 -7.64535686 68.29716614 -7.63134766 63.39038086 C-7.61424646 57.09286448 -7.62410235 50.79573138 -7.64206505 44.49822903 C-7.6528913 39.66418047 -7.649462 34.83022321 -7.64168167 29.99617195 C-7.63967695 27.67367571 -7.64214842 25.35117125 -7.64912033 23.02868462 C-7.65671663 19.78688377 -7.64515614 16.54570913 -7.62841797 13.30395508 C-7.63449066 12.33919754 -7.64056335 11.37444 -7.64682007 10.38044739 C-7.6383606 9.49861786 -7.62990112 8.61678833 -7.6211853 7.70823669 C-7.62005423 6.94189124 -7.61892315 6.17554579 -7.6177578 5.38597775 C-6.80047233 1.06103251 -4.05862282 0.01294747 0 0 Z " fill="#010304" transform="translate(234.240234375,188.61181640625)"/>
<path d="M0 0 C0.21610224 18.19956655 -9.84958192 34.39252745 -22.08203125 47.17578125 C-36.17672026 60.64287743 -54.78291419 66.90737349 -74 67.4375 C-90.58162139 67.04810772 -105.93757449 61.26333433 -119 51 C-118.17056885 50.05761475 -117.3411377 49.11522949 -116.48657227 48.14428711 C-113.988335 45.2360159 -111.65886771 42.24510348 -109.37475586 39.16625977 C-104.81009145 33.08174622 -99.98830866 27.24656774 -94.9375 21.5625 C-94.48230484 21.04962936 -94.02710968 20.53675873 -93.55812073 20.00834656 C-67.88865924 -8.5050733 -35.44067235 -4.51631864 0 0 Z " fill="#F6CC00" transform="translate(206,150)"/>
<path d="M0 0 C81.18 0 162.36 0 246 0 C246 6.27 246 12.54 246 19 C164.82 19 83.64 19 0 19 C0 12.73 0 6.46 0 0 Z " fill="#838691" transform="translate(133,461)"/>
<path d="M0 0 C8.25 0 16.5 0 25 0 C25 55.11 25 110.22 25 167 C16.75 167 8.5 167 0 167 C0 111.89 0 56.78 0 0 Z " fill="#2C92BF" transform="translate(364,123)"/>
<path d="M0 0 C15.20840234 2.33975421 15.20840234 2.33975421 21.0625 5.0625 C21.73023438 5.36486572 22.39796875 5.66723145 23.0859375 5.97875977 C29.75074237 9.13195796 35.39769438 13.19562396 41 18 C41.72574219 18.61359375 42.45148438 19.2271875 43.19921875 19.859375 C54.27047618 30.03884156 62.25799082 45.29285988 65 60 C65 62.31 65 64.62 65 67 C43.55 67 22.1 67 0 67 C0 44.89 0 22.78 0 0 Z " fill="#5E6EE5" transform="translate(141,71)"/>
<path d="M0 0 C0.83088638 -0.00938095 1.66177277 -0.0187619 2.51783752 -0.02842712 C3.40647995 -0.01719315 4.29512238 -0.00595917 5.21069336 0.00561523 C6.58988197 0.00343239 6.58988197 0.00343239 7.99693298 0.00120544 C9.93776625 0.00286337 11.87861281 0.01441275 13.81933594 0.03515625 C16.79345355 0.06413995 19.76579183 0.05575748 22.73999023 0.04272461 C24.62606662 0.04896124 26.51213738 0.0573516 28.39819336 0.06811523 C29.28886002 0.0651796 30.17952667 0.06224396 31.09718323 0.05921936 C31.92491745 0.07190353 32.75265167 0.08458771 33.60546875 0.09765625 C34.33286758 0.10305923 35.06026642 0.10846222 35.80970764 0.11402893 C38.39987865 0.63476859 39.23921361 1.32648463 40.73803711 3.50170898 C41.11898804 6.12011719 41.11898804 6.12011719 41.1262207 9.30249023 C41.13567719 10.49382568 41.14513367 11.68516113 41.15487671 12.91259766 C41.14880402 14.20012939 41.14273132 15.48766113 41.13647461 16.81420898 C41.13849566 18.14795084 41.14140736 19.48169162 41.14517212 20.81542969 C41.14959407 23.60972624 41.14316901 26.40373497 41.12915039 29.19799805 C41.11205805 32.77945364 41.1219 36.3602348 41.13986778 39.94166565 C41.15070942 42.69548625 41.14725765 45.449147 41.13948441 48.20297241 C41.1365104 50.16559283 41.14562003 52.12821947 41.15487671 54.09082031 C41.14542023 55.28215576 41.13596375 56.47349121 41.1262207 57.70092773 C41.12383392 58.75111084 41.12144714 59.80129395 41.11898804 60.88330078 C40.73803711 63.50170898 40.73803711 63.50170898 39.47206116 65.33900452 C37.3529384 66.75992685 36.14595509 66.88689145 33.60546875 66.90576172 C32.77773453 66.91844589 31.95000031 66.93113007 31.09718323 66.94419861 C30.20651657 66.94126297 29.31584991 66.93832733 28.39819336 66.93530273 C27.47969101 66.94054459 26.56118866 66.94578644 25.61485291 66.95118713 C23.67228201 66.95761058 21.72967224 66.95626617 19.78710938 66.94775391 C16.81496852 66.93925027 13.84475331 66.96799004 10.87280273 66.99975586 C8.98543352 67.00136811 7.0980609 67.00078988 5.21069336 66.99780273 C4.32205093 67.00903671 3.43340851 67.02027069 2.51783752 67.03184509 C1.68695114 67.02246414 0.85606476 67.01308319 0 67.00341797 C-1.09229164 67.00316872 -1.09229164 67.00316872 -2.20664978 67.00291443 C-5.22338462 66.26725818 -6.40111223 64.95248155 -8.26196289 62.50170898 C-8.76989746 59.84570312 -8.76989746 59.84570312 -8.77954102 56.78686523 C-8.79214966 55.63887451 -8.8047583 54.49088379 -8.81774902 53.30810547 C-8.8096521 52.07261963 -8.80155518 50.83713379 -8.79321289 49.56420898 C-8.79703979 48.29198486 -8.8008667 47.01976074 -8.80480957 45.70898438 C-8.80753216 43.01857071 -8.80216103 40.32961028 -8.78344727 37.6394043 C-8.76065651 34.19576153 -8.77378258 30.75336571 -8.79773712 27.30976868 C-8.81568841 24.01953771 -8.80311009 20.72945624 -8.79321289 17.43920898 C-8.80130981 16.20372314 -8.80940674 14.9682373 -8.81774902 13.6953125 C-8.80514038 12.54732178 -8.79253174 11.39933105 -8.77954102 10.21655273 C-8.77635864 9.20713623 -8.77317627 8.19771973 -8.76989746 7.15771484 C-7.82926611 2.2391239 -4.91016659 0.00112046 0 0 Z " fill="#040404" transform="translate(297.261962890625,234.498291015625)"/>
<path d="M0 0 C8.58 0 17.16 0 26 0 C26 29.7 26 59.4 26 90 C17.42 90 8.84 90 0 90 C0 60.3 0 30.6 0 0 Z " fill="#4DC3A4" transform="translate(426,200)"/>
<path d="M0 0 C8.25 0 16.5 0 25 0 C25 29.7 25 59.4 25 90 C16.75 90 8.5 90 0 90 C0 60.3 0 30.6 0 0 Z " fill="#2B91BE" transform="translate(239,200)"/>
<path d="M0 0 C1.15108246 -0.00990463 2.30216492 -0.01980927 3.48812866 -0.03001404 C4.75210983 -0.02551239 6.016091 -0.02101074 7.31837463 -0.01637268 C8.66206938 -0.02207451 10.00575929 -0.02903804 11.34944153 -0.03717041 C15.0003121 -0.05513846 18.65094282 -0.05392662 22.30184436 -0.04822803 C25.34864796 -0.04514124 28.39540515 -0.05122296 31.44220215 -0.05726677 C38.62964384 -0.07132251 45.8169667 -0.0697422 53.00440979 -0.05836487 C60.42139135 -0.04688369 67.83801132 -0.06095667 75.25494522 -0.08776134 C81.62107118 -0.10990771 87.98708356 -0.11655812 94.35324532 -0.11068493 C98.15626402 -0.10731142 101.95905094 -0.10975619 105.76203728 -0.12693596 C109.33839561 -0.14238623 112.91421781 -0.13847166 116.49055481 -0.11963081 C118.42922799 -0.11417857 120.36792512 -0.12847383 122.30654907 -0.14332581 C124.0374025 -0.1285746 124.0374025 -0.1285746 125.80322266 -0.11352539 C127.30727488 -0.11321146 127.30727488 -0.11321146 128.841712 -0.1128912 C132.2026914 0.52841983 133.41756519 1.68960728 135.46510315 4.38768005 C135.40260315 7.51268005 135.40260315 7.51268005 134.46510315 10.38768005 C131.07075433 12.65057927 129.90361663 12.64023525 125.92347717 12.64837646 C124.77094955 12.65546127 123.61842194 12.66254608 122.43096924 12.66984558 C121.16541702 12.66736816 119.89986481 12.66489075 118.59596252 12.66233826 C117.25064816 12.66668509 115.90533627 12.67186814 114.56002808 12.67782593 C110.90513433 12.6912292 107.25034391 12.69179322 103.59543037 12.68926263 C100.54605636 12.68819398 97.49670334 12.69307346 94.44733381 12.69786805 C87.25516156 12.70896746 80.06304154 12.70939797 72.87086487 12.70335388 C65.44597343 12.69731031 58.02127131 12.70963375 50.59641218 12.73092395 C44.22521997 12.7485225 37.85408812 12.75454415 31.48287249 12.75128621 C27.67600896 12.74947067 23.86928053 12.7521364 20.06243896 12.76600075 C16.48370704 12.7785465 12.90527102 12.77666623 9.32654381 12.76358986 C7.38410044 12.76008448 5.44164816 12.77142549 3.49923706 12.78315735 C1.77044563 12.77263588 1.77044563 12.77263588 0.00672913 12.76190186 C-1.49870579 12.76215347 -1.49870579 12.76215347 -3.03455353 12.76241016 C-5.53489685 12.38768005 -5.53489685 12.38768005 -7.35781097 11.05179119 C-9.19013367 8.46133567 -8.91949916 6.46449854 -8.53489685 3.38768005 C-6.14389554 0.01030513 -3.98635804 0.00966397 0 0 Z " fill="#060607" transform="translate(57.53489685058594,261.61231994628906)"/>
<path d="M0 0 C3.3 0 6.6 0 10 0 C10 55.11 10 110.22 10 167 C1.75 167 -6.5 167 -15 167 C-15 166.67 -15 166.34 -15 166 C-10.05 166 -5.1 166 0 166 C0 111.22 0 56.44 0 0 Z " fill="#1F80A3" transform="translate(379,123)"/>
<path d="M0 0 C8.58 0 17.16 0 26 0 C26 14.19 26 28.38 26 43 C17.42 43 8.84 43 0 43 C0 28.81 0 14.62 0 0 Z " fill="#4DC3A4" transform="translate(301,247)"/>
<path d="M0 0 C0.82306641 -0.00686325 1.64613281 -0.0137265 2.49414062 -0.02079773 C5.2183552 -0.03911817 7.94199673 -0.03522075 10.66625977 -0.02954102 C12.55811247 -0.03410043 14.44996351 -0.03940528 16.34181213 -0.04542542 C20.30883508 -0.05436691 24.27565683 -0.05192175 28.24267578 -0.04199219 C33.3284476 -0.0305034 38.41352502 -0.05070728 43.49920559 -0.07990932 C47.40684935 -0.09824912 51.31432604 -0.09798327 55.22200203 -0.0922718 C57.0971073 -0.09211831 58.9722237 -0.0981862 60.84728813 -0.11056328 C63.46894849 -0.12542909 66.08931775 -0.1148292 68.7109375 -0.09765625 C69.48665604 -0.10732422 70.26237457 -0.11699219 71.06159973 -0.12695312 C74.57011092 -0.07878897 76.56709618 0.14650159 79.43714905 2.24009705 C80.92016602 4.40405273 80.92016602 4.40405273 80.85766602 7.52905273 C79.92016602 10.40405273 79.92016602 10.40405273 76.92016602 12.40405273 C74.1878927 12.60371437 71.55731564 12.6873986 68.82446289 12.67871094 C67.99979019 12.68382187 67.17511749 12.6889328 66.32545471 12.69419861 C63.59653489 12.70811124 60.86786711 12.70713678 58.13891602 12.70483398 C56.24466864 12.70871963 54.35042213 12.71305402 52.45617676 12.71781921 C48.48499731 12.72528475 44.51390677 12.72498746 40.54272461 12.71972656 C35.44800707 12.71392752 30.35365255 12.73087181 25.25899506 12.75407124 C21.3471259 12.76878515 17.43534468 12.76968355 13.52345276 12.76656151 C11.64473246 12.76707577 9.76600738 12.7723331 7.88731384 12.78237343 C5.26325704 12.79467705 2.63991407 12.78798332 0.01586914 12.77636719 C-1.15310158 12.78783279 -1.15310158 12.78783279 -2.34568787 12.79953003 C-7.56892091 12.74828832 -7.56892091 12.74828832 -10.06237793 11.06828308 C-11.66943017 8.4396633 -11.45484982 6.40417943 -11.07983398 3.40405273 C-8.55072673 -0.7237974 -4.32752951 -0.02504815 0 0 Z " fill="#090909" transform="translate(60.079833984375,288.595947265625)"/>
<path d="M0 0 C8.58 0 17.16 0 26 0 C26 29.7 26 59.4 26 90 C17.42 90 8.84 90 0 90 C0 89.67 0 89.34 0 89 C5.28 89 10.56 89 16 89 C16 59.96 16 30.92 16 1 C10.72 1 5.44 1 0 1 C0 0.67 0 0.34 0 0 Z " fill="#2DA07F" transform="translate(426,200)"/>
<path d="M0 0 C8.25 0 16.5 0 25 0 C25 29.7 25 59.4 25 90 C16.75 90 8.5 90 0 90 C0 89.67 0 89.34 0 89 C5.28 89 10.56 89 16 89 C16 59.96 16 30.92 16 1 C10.72 1 5.44 1 0 1 C0 0.67 0 0.34 0 0 Z " fill="#1E7EA0" transform="translate(239,200)"/>
<path d="M0 0 C3.3 0 6.6 0 10 0 C10 14.19 10 28.38 10 43 C1.42 43 -7.16 43 -16 43 C-16 42.67 -16 42.34 -16 42 C-10.72 42 -5.44 42 0 42 C0 28.14 0 14.28 0 0 Z " fill="#2DA180" transform="translate(317,247)"/>
<path d="M0 0 C3 2.0625 3 2.0625 5 5 C5.06641554 8.85210127 4.87229157 10.99848005 2.3125 13.9375 C-0.7864448 15.3613395 -2.62182812 15.55153827 -6 15 C-8.9375 12.9375 -8.9375 12.9375 -11 10 C-11 6.45638757 -10.65850044 4.13408409 -8.875 1.0625 C-5.76581435 -0.69937187 -3.49155423 -0.48159369 0 0 Z " fill="#050606" transform="translate(259,358)"/>
</svg>
