<?xml version="1.0" encoding="UTF-8"?>
<svg version="1.1" xmlns="http://www.w3.org/2000/svg" width="177" height="244">
<path d="M0 0 C3.48165768 2.9148762 5.25405046 4.94965138 6.6875 9.25 C7.08430449 14.50765945 6.58248146 17.81102842 3.6875 22.25 C-1.24715009 27.34656829 -5.25661664 28.14824743 -12.1875 28.8125 C-19.76397664 29.57923489 -26.64671861 30.69877428 -32.3125 36.1875 C-33.62124932 38.88679547 -33.89109916 40.28467931 -33.3125 43.25 C-28.48555748 49.58536206 -21.89105161 51.22270525 -14.3125 52.25 C-12.2066461 52.38130649 -10.1024656 52.4648196 -7.99389648 52.5402832 C10.02799791 53.20224969 24.96422864 58.28835301 38.6875 70.25 C40.63671875 72.8359375 40.63671875 72.8359375 42.375 75.625 C42.95636719 76.54023437 43.53773438 77.45546875 44.13671875 78.3984375 C48.72173293 86.82932001 49.14143525 96.93859925 47 106.234375 C42.3127808 118.81174653 32.74381636 127.39693315 20.78515625 132.96875 C11.14598014 136.955698 1.46030682 137.79831974 -8.86450195 138.42871094 C-16.55008626 138.95581234 -24.54214318 139.96369525 -31 144.5 C-33.67387344 147.10623659 -33.67387344 147.10623659 -33.4375 150.8125 C-32.19094945 154.62140446 -31.57481383 155.96638032 -28.3125 158.25 C-22.26081293 161.22032347 -15.71507618 161.84559285 -9.07324219 162.34033203 C-3.48768879 162.86491932 0.43533665 164.66663616 4.1484375 168.92578125 C6.51492822 173.16321549 7.31823061 176.29425952 6.6875 181.25 C4.93014381 186.13154496 2.19804748 189.64943274 -2.3125 192.25 C-5.31717835 192.9403813 -8.17903743 192.91614809 -11.25 192.8125 C-12.08466797 192.79590332 -12.91933594 192.77930664 -13.77929688 192.76220703 C-29.10887282 192.19801783 -43.04354887 187.02810106 -54.3046875 176.453125 C-61.91488431 168.10263667 -64.82056521 159.24326967 -64.55859375 148.1171875 C-63.80522728 139.33987021 -61.18023079 132.79477665 -55.3125 126.25 C-54.19875 124.9815625 -54.19875 124.9815625 -53.0625 123.6875 C-40.39185478 112.45670083 -27.49853428 108.5719508 -10.875 107.8125 C-1.42284128 107.36319332 8.18102808 106.5392062 15.6875 100.25 C17.10791821 97.40916359 17.00202272 95.39522722 16.6875 92.25 C13.7028254 88.23216881 9.47365643 85.76252378 4.53613281 84.85424805 C2.06746104 84.57679147 -0.39749627 84.36961431 -2.875 84.1875 C-4.66816928 84.02960474 -6.46114083 83.86944773 -8.25390625 83.70703125 C-9.12160645 83.63049316 -9.98930664 83.55395508 -10.88330078 83.47509766 C-27.95153195 81.89349875 -44.34223926 77.24775093 -56.3125 64.25 C-62.94270546 55.38025848 -65.34925492 46.24289344 -64.3125 35.25 C-63.03389723 27.55689427 -60.5225268 22.02526556 -55.3125 16.25 C-54.7865625 15.64414062 -54.260625 15.03828125 -53.71875 14.4140625 C-42.66840144 2.47760109 -15.85475539 -8.69454328 0 0 Z " fill="#F3EBAA" transform="translate(110.3125,32.75)"/>
</svg>
